<svg xmlns="http://www.w3.org/2000/svg" xmlns:xlink="http://www.w3.org/1999/xlink" id="Layer_1" x="0px" y="0px" viewBox="0 0 64 64" style="enable-background:new 0 0 64 64;" xml:space="preserve"><style type="text/css">	.st0{fill:#FFFFFF;stroke:#006838;stroke-width:0.25;stroke-miterlimit:10;}	.st1{fill:url(#SVGID_1_);}	.st2{fill:#FFFFFF;}	.st3{fill:#006838;}</style><circle class="st0" cx="32" cy="32" r="31"></circle><linearGradient id="SVGID_1_" gradientUnits="userSpaceOnUse" x1="3.7915" y1="32" x2="60.2085" y2="32">	<stop offset="0" style="stop-color:#006838"></stop>	<stop offset="0.5056" style="stop-color:#006838;stop-opacity:0.59"></stop>	<stop offset="1" style="stop-color:#006838;stop-opacity:0.8"></stop></linearGradient><circle class="st1" cx="32" cy="32" r="28.2"></circle><circle class="st2" cx="32" cy="32" r="22"></circle><g>	<path class="st3" d="M36.6,48l0.3-0.4l-4.9-3.3L27.8,47v-6.8h-0.5l-0.2,0.5c0,0,0.5,0.2,1.2,0.4c0.3,0.1,0.7,0.2,1,0.3  c0.3,0.1,0.7,0.1,0.9,0.2c0.5,0,1.1,0.1,1.7,0.1c0.5,0,0.9,0,1.4,0c0.4,0,0.9-0.1,1.2-0.2c0.1,0,0.3-0.1,0.6-0.1  c0.7-0.2,1.6-0.5,1.6-0.5l-0.2-0.5H36V48H36.6l0.3-0.4L36.6,48h0.5v-8.5l-0.7,0.2c0,0-0.1,0-0.3,0.1c-0.2,0.1-0.6,0.2-1,0.3  c-0.2,0.1-0.3,0.1-0.5,0.1c-0.1,0-0.3,0.1-0.4,0.1c-0.3,0.1-0.7,0.1-1.1,0.1c-0.4,0-0.9,0-1.3,0c-0.6,0-1.2,0-1.6-0.1  c-0.2,0-0.5-0.1-0.8-0.2c-0.5-0.1-1-0.3-1.4-0.4c-0.2-0.1-0.4-0.1-0.5-0.2c-0.1,0-0.1,0-0.1,0c0,0,0,0,0,0l-0.7-0.2v9.5l5.2-3.4  l5.2,3.4v-1H36.6z"></path>	<polygon class="st3" points="36.4,34.4 32,32.1 27.6,34.5 28.4,29.6 24.9,26.1 29.8,25.4 32,20.9 34.2,25.3 39.1,26 35.6,29.5  "></polygon>	<path class="st3" d="M41.5,28.3h-0.5c0,2.5-1,4.7-2.6,6.3c-1.6,1.6-3.9,2.6-6.3,2.6c-2.5,0-4.7-1-6.3-2.6c-1.6-1.6-2.6-3.9-2.6-6.3  c0-2.5,1-4.7,2.6-6.3c1.6-1.6,3.9-2.6,6.3-2.6c2.5,0,4.7,1,6.3,2.6c1.6,1.6,2.6,3.9,2.6,6.3H41.5H42c0-5.5-4.5-10-10-10  c-5.5,0-10,4.5-10,10c0,5.5,4.5,10,10,10c5.5,0,10-4.5,10-10H41.5z"></path>	<path class="st3" d="M44.7,28.3h-0.5c0,3.4-1.4,6.4-3.6,8.6c-2.2,2.2-5.3,3.6-8.6,3.6c-3.4,0-6.4-1.4-8.6-3.6  c-2.2-2.2-3.6-5.3-3.6-8.6c0-3.4,1.4-6.4,3.6-8.6c2.2-2.2,5.3-3.6,8.6-3.6c3.4,0,6.4,1.4,8.6,3.6c2.2,2.2,3.6,5.3,3.6,8.6H44.7h0.5  c0-7.3-5.9-13.3-13.3-13.3c-7.3,0-13.3,5.9-13.3,13.3c0,7.3,5.9,13.3,13.3,13.3c7.3,0,13.3-5.9,13.3-13.3H44.7z"></path></g></svg>