<svg xmlns="http://www.w3.org/2000/svg" xmlns:xlink="http://www.w3.org/1999/xlink" id="Layer_1" x="0px" y="0px" viewBox="0 0 64 64" style="enable-background:new 0 0 64 64;" xml:space="preserve"><style type="text/css">	.st0{fill:#FFFFFF;stroke:#262261;stroke-width:0.25;stroke-miterlimit:10;}	.st1{fill:url(#SVGID_1_);}	.st2{fill:#FFFFFF;}	.st3{fill:#262261;}</style><circle class="st0" cx="32" cy="32" r="31"></circle><linearGradient id="SVGID_1_" gradientUnits="userSpaceOnUse" x1="3.7915" y1="32" x2="60.2085" y2="32">	<stop offset="0" style="stop-color:#262261"></stop>	<stop offset="0.5056" style="stop-color:#262261;stop-opacity:0.59"></stop>	<stop offset="1" style="stop-color:#262261;stop-opacity:0.8"></stop></linearGradient><circle class="st1" cx="32" cy="32" r="28.2"></circle><circle class="st2" cx="32" cy="32" r="22"></circle><g>	<polygon class="st3" points="36.5,43.1 32,47.6 27.5,43.1 29.4,43.1 32,45.7 34.5,43.1  "></polygon>	<path class="st3" d="M40.1,32.2V16.4H23.9v15.8h-6.4v8.1h29.1v-8.1H40.1z M38.8,17.8v18h-1.5V21.4c-1.4,0-2.5-1.1-2.5-2.5  c0,0,0-0.1,0-0.1h-5.7c0,0,0,0.1,0,0.1c0,1.4-1.1,2.5-2.5,2.5c-0.1,0-0.2,0-0.2,0v14.4h-1.2v-18H38.8z M35.7,30.1  c0,2.1-1.7,3.7-3.7,3.7c-2.1,0-3.7-1.7-3.7-3.7c0-2.1,1.7-3.7,3.7-3.7C34.1,26.3,35.7,28,35.7,30.1z M45.2,39H18.8v-5.4h5.1v2.2  h-3.7v1.3h23.6v-1.3h-3.7v-2.2h5.1V39z"></path>	<path class="st3" d="M34.5,30.1c0,1.4-1.1,2.5-2.5,2.5c-1.4,0-2.5-1.1-2.5-2.5c0-1.4,1.1-2.5,2.5-2.5  C33.4,27.6,34.5,28.7,34.5,30.1z"></path></g></svg>