<svg xmlns="http://www.w3.org/2000/svg" xmlns:xlink="http://www.w3.org/1999/xlink" id="Layer_1" x="0px" y="0px" viewBox="0 0 64 64" style="enable-background:new 0 0 64 64;" xml:space="preserve"><style type="text/css">	.st0{fill:#FFFFFF;stroke:#00A69C;stroke-width:0.25;stroke-miterlimit:10;}	.st1{fill:url(#SVGID_1_);}	.st2{fill:#FFFFFF;}	.st3{fill:#00A69C;}</style><circle class="st0" cx="32" cy="32" r="31"></circle><linearGradient id="SVGID_1_" gradientUnits="userSpaceOnUse" x1="3.7915" y1="32" x2="60.2085" y2="32">	<stop offset="0" style="stop-color:#00A69C"></stop>	<stop offset="0.5056" style="stop-color:#00A69C;stop-opacity:0.59"></stop>	<stop offset="1" style="stop-color:#00A69C;stop-opacity:0.8"></stop></linearGradient><circle class="st1" cx="32" cy="32" r="28.2"></circle><circle class="st2" cx="32" cy="32" r="22"></circle><g>	<path class="st3" d="M44.6,43.7c0-0.4-0.1-0.7-0.1-1.1c-0.3-1.6-1-3-1.6-4.4c-0.3-0.6-0.6-1.3-1-2c-0.5,0.5-1,0.7-1.6,0.7  c-1,0-2,0-3.1,0c-1.4-0.1-2.4-1.5-2.1-2.9c0.1-0.6,0.4-1,0.9-1.4c-1.3-1.3-1.1-2.8-0.1-3.8c-0.2-0.4-0.5-0.9-0.7-1.3  c0-0.1-0.1-0.1-0.2-0.1c-0.8-0.2-1.3-0.7-1.7-1.3c-0.2-0.3-0.4-0.5-0.6-0.8c-0.6,0.3-1.1,0.6-1.7,0.9c-0.1,0-0.1,0.1-0.2,0.2  c-1.1,1.8-2.2,3.5-3.3,5.3c-1.4,2.3-2.7,4.5-3.8,7c-0.6,1.3-1,2.7-1,4.2c0,1,0.3,1.8,1,2.5c0.7,0.7,1.6,1.1,2.5,1.4  c1.9,0.7,4,1,6,1.1c2.5,0.1,5.1-0.1,7.6-0.7c1.3-0.3,2.6-0.8,3.7-1.6C44.2,45.3,44.7,44.7,44.6,43.7z M31.3,43.8  c-0.1,0.1-0.2,0.1-0.4,0.1l-0.1,0l-0.1-0.1l-0.1-0.1l-0.1-0.1l-0.1-0.1c0,0,0-0.1-0.1-0.1c0-0.1-0.1-0.1-0.1-0.1l-1.3-1.6l0,1.6  c0,0.2-0.1,0.3-0.2,0.5c-0.1,0.1-0.2,0.2-0.4,0.2c-0.2,0-0.3-0.1-0.4-0.2c-0.1-0.1-0.2-0.3-0.2-0.5v-3.2c0-0.2,0.1-0.3,0.2-0.5  c0.1-0.1,0.2-0.2,0.4-0.2c0.2,0,0.3,0.1,0.4,0.2c0.1,0.1,0.2,0.3,0.2,0.5l0,1.4l1.4-1.6c0.1-0.1,0.1-0.1,0.1-0.2  c0,0,0.1-0.1,0.1-0.1c0.1-0.1,0.1-0.1,0.1-0.1c0,0,0.1,0,0.1,0c0.1,0,0.2,0,0.3,0.1c0.1,0.1,0.2,0.2,0.2,0.4c0,0.1-0.1,0.3-0.3,0.6  l-1,1.1l1.1,1.2c0.2,0.3,0.3,0.5,0.3,0.6C31.5,43.6,31.4,43.7,31.3,43.8z M35.2,43.8c-0.1,0.1-0.2,0.1-0.3,0.1h-2.2  c-0.1,0-0.2,0-0.3-0.1c-0.1,0-0.1-0.1-0.2-0.2c0-0.1-0.1-0.2-0.1-0.3c0-0.1,0-0.2,0-0.3v-2.8c0-0.1,0-0.2,0-0.3  c0-0.1,0-0.2,0.1-0.2c0-0.1,0.1-0.1,0.1-0.2c0.1,0,0.1-0.1,0.2-0.1c0.1,0,0.2,0,0.3,0h2c0.1,0,0.2,0,0.3,0.1  c0.1,0.1,0.1,0.2,0.1,0.3c0,0.1,0,0.2-0.1,0.3c-0.1,0.1-0.2,0.1-0.3,0.1h-1.6v1h1.4c0.1,0,0.2,0,0.3,0.1c0.1,0.1,0.1,0.2,0.1,0.3  c0,0.1,0,0.2-0.1,0.3c-0.1,0.1-0.2,0.1-0.3,0.1h-1.4v1h1.7c0.1,0,0.2,0,0.3,0.1c0.1,0.1,0.1,0.2,0.1,0.3  C35.3,43.7,35.3,43.7,35.2,43.8z M39,43.7c-0.3,0.3-0.8,0.4-1.3,0.4c-0.6,0-1.1-0.1-1.5-0.3c-0.1,0-0.1-0.1-0.1-0.2  c0-0.1,0-0.1,0-0.2c0-0.1,0-0.1,0.1-0.2c0-0.1,0.1-0.1,0.1-0.2c0.1,0,0.1-0.1,0.2-0.1c0.1,0,0.1,0,0.2,0.1c0.3,0.1,0.7,0.2,1,0.2  c0.2,0,0.4,0,0.6-0.1c0.1-0.1,0.2-0.2,0.2-0.4c0-0.2-0.2-0.4-0.5-0.5l-1-0.3c-0.4-0.1-0.7-0.3-0.8-0.5c-0.2-0.2-0.2-0.4-0.2-0.7  c0-0.4,0.2-0.7,0.5-1c0.3-0.2,0.8-0.4,1.3-0.4c0.3,0,0.5,0,0.8,0.1c0.3,0.1,0.5,0.2,0.6,0.3c0.1,0.1,0.1,0.1,0.1,0.2  c0,0.1,0,0.2,0,0.2c0,0.1-0.1,0.1-0.1,0.2c0,0.1-0.1,0.1-0.2,0.1c-0.1,0-0.1,0-0.2,0c-0.2-0.1-0.4-0.2-0.5-0.2  c-0.2,0-0.3-0.1-0.5-0.1c-0.1,0-0.3,0-0.4,0c-0.1,0-0.2,0.1-0.3,0.2c-0.1,0.1-0.1,0.2-0.1,0.3c0,0.1,0.1,0.2,0.2,0.3  c0.1,0.1,0.3,0.2,0.5,0.2c0,0,0.1,0,0.2,0c0.1,0,0.2,0,0.2,0c0.2,0.1,0.4,0.1,0.5,0.2c0.1,0.1,0.3,0.1,0.4,0.2  c0.1,0.1,0.2,0.2,0.3,0.3c0.1,0.1,0.1,0.2,0.2,0.3c0,0.1,0.1,0.3,0.1,0.4C39.5,43.1,39.3,43.4,39,43.7z"></path>	<path class="st3" d="M21.7,33.2c0-3,0-6,0-9.1c0.4,0,0.8,0,1.1,0c1.1,0.1,2.1-0.2,3-1c1-0.9,2.1-1.8,3.1-2.7  c0.5-0.4,0.9-0.5,1.5-0.4c1.2,0.3,2.3,0.5,3.5,0.8c0.5,0.1,0.8,0.4,1.1,0.8c0.5,0.8,1.1,1.7,1.6,2.5c0.5,0.7,0.4,1.4-0.2,1.9  c-0.6,0.5-1.4,0.5-1.9-0.1c-0.4-0.4-0.7-0.9-1.1-1.4c-0.4-0.5-0.5-0.5-1-0.2c-1.4,0.8-2.9,1.5-4.3,2.3c-0.3,0.2-0.4,0.5-0.3,0.7  c0.2,0.3,0.5,0.4,0.8,0.2c0.1-0.1,0.2-0.1,0.4-0.1c-1.3,2.1-2.6,4.2-3.9,6.3C24,33.1,22.8,33.3,21.7,33.2z"></path>	<path class="st3" d="M20.6,22.4c0,4.1,0,8.2,0,12.4c-0.3,0-0.6,0-0.8,0c-0.5,0-1,0-1.5,0c-0.7,0-1.2-0.4-1.2-1.2c0-1.3,0-2.6,0-3.9  c0-2,0-4,0-6.1c0-0.9,0.4-1.3,1.3-1.3c0.7,0,1.4,0,2.1,0C20.5,22.4,20.5,22.4,20.6,22.4z"></path>	<path class="st3" d="M38.9,16c0,0.1-0.1,0.2-0.1,0.3c-0.6,1.4-1.1,2.8-1.7,4.1c-0.1,0.1-0.2,0.2-0.3,0.3c-0.3,0.1-0.5,0.2-0.9,0.3  c-0.6-1.2-1.8-1.3-2.9-1.4c-1.2-0.2-2.1-2.6-2.4-3.3c0-0.1-0.1-0.2-0.1-0.4c0.7,0.2,1.3,0.3,1.9,0.4c0.7,0.2,1.4,0.3,2.1,0.4  c0.2,0,0.3,0,0.5,0c1.3-0.3,2.5-0.5,3.8-0.8C38.7,16,38.8,16,38.9,16z"></path>	<path class="st3" d="M38.7,29.3c0.4,0,0.8,0,1.2,0c0.8,0,1.4,0.6,1.5,1.4c0,0.7-0.6,1.4-1.4,1.4c-0.9,0-1.8,0-2.7,0  c-0.8,0-1.4-0.7-1.3-1.4c0-0.8,0.7-1.4,1.4-1.4C37.9,29.3,38.3,29.3,38.7,29.3z"></path>	<path class="st3" d="M38.7,36c-0.5,0-0.9,0-1.4,0c-0.7,0-1.3-0.7-1.3-1.4c0-0.7,0.6-1.3,1.3-1.4c0.9,0,1.8,0,2.7,0  c0.8,0,1.4,0.6,1.4,1.4c0,0.8-0.6,1.4-1.4,1.4C39.6,36,39.2,36,38.7,36C38.7,36,38.7,36,38.7,36z"></path>	<path class="st3" d="M36.1,27.4c1.2-0.7,1.3-0.8,1.8-2c0.7,0,1.3,0,2,0c0.8,0,1.5,0.7,1.4,1.4c0,0.8-0.7,1.3-1.5,1.4  c-0.8,0-1.7,0-2.5,0C36.8,28.3,36.4,28,36.1,27.4z"></path>	<path class="st3" d="M36.4,21.9c0.3-0.1,0.6-0.2,0.8-0.2c0.9,0,1.8,0,2.8,0c1,0,1.6,0.9,1.4,1.8c-0.1,0.3-0.3,0.5-0.5,0.7  c-0.3,0.2-0.7,0.3-1,0.3c-0.6,0.1-1.1,0-1.7,0c-0.1,0-0.2,0-0.3-0.1c-0.5-0.8-0.9-1.5-1.4-2.3C36.5,22,36.5,22,36.4,21.9z"></path></g></svg>