<svg xmlns="http://www.w3.org/2000/svg" xmlns:xlink="http://www.w3.org/1999/xlink" id="Layer_1" x="0px" y="0px" viewBox="0 0 64 64" style="enable-background:new 0 0 64 64;" xml:space="preserve"><style type="text/css">	.st0{fill:#FFFFFF;stroke:#9E1F63;stroke-width:0.25;stroke-miterlimit:10;}	.st1{fill:url(#SVGID_1_);}	.st2{fill:#FFFFFF;}	.st3{fill:#9E1F63;}</style><circle class="st0" cx="32" cy="32" r="31"></circle><linearGradient id="SVGID_1_" gradientUnits="userSpaceOnUse" x1="3.7915" y1="32" x2="60.2085" y2="32">	<stop offset="0" style="stop-color:#9E1F63"></stop>	<stop offset="0.5056" style="stop-color:#9E1F63;stop-opacity:0.59"></stop>	<stop offset="1" style="stop-color:#9E1F63;stop-opacity:0.8"></stop></linearGradient><circle class="st1" cx="32" cy="32" r="28.2"></circle><circle class="st2" cx="32" cy="32" r="22"></circle><g>	<polygon class="st3" points="17.9,23.1 19.7,23.1 19.7,30.8 18.8,30.8  "></polygon>	<path class="st3" d="M20.6,23.8v5.8l2.1-0.6c0,0,0.5-0.1,0.8,0.3c0,0,0.7,0.8,1.4,1.2l4.4,1.5c0,0,0.9,0.2,1.3-0.6  c0,0,0.4-0.8-0.3-1.4l-3.9-2.2c0,0-0.4-0.3-0.3-0.8c0,0,0.1-0.5,0.6-0.6h1l2.7-3.3L27,22.6c0,0-1-0.1-1.6,0.1l-4,1.1  C21.4,23.8,20.9,23.9,20.6,23.8z"></path>	<polygon class="st3" points="38.5,45.2 38.5,46.2 46.1,46.2 46.1,44.4  "></polygon>	<path class="st3" d="M45.3,43.6l-6.5,0.6c0,0-0.1-0.7-1.6-1l-5.6-0.1c0,0-1.4-0.1-2.1-0.8l-4.3-3.7c0,0-0.5-0.9,0.1-1.6  c0,0,0.7-0.8,1.6-0.2l3.9,2.7c0,0,0.3,0.3,1,0.3h5c0,0,0.3-0.1,0.4-0.4c0,0,0.1-0.4-0.5-0.4h-3c0,0-0.8-0.2-0.9-1.1  c0,0-0.1-1.1,0.9-1.1h5.8c0,0,2.1-0.2,3.1,1.1C42.6,38,44.1,39.5,45.3,43.6z"></path>	<path class="st3" d="M36,17.8l-8.1,9.7l2.8,1.6c0,0,1.3,0.7,0.9,2.4c0,0-0.7,1.5-2,1.3l-3.5-1.1l5.8,4.8l11-12.9L36,17.8z   M34.5,28.3c-1,0-1.8-0.8-1.8-1.8c0-1,0.8-1.8,1.8-1.8c1,0,1.8,0.8,1.8,1.8C36.3,27.5,35.5,28.3,34.5,28.3z"></path></g></svg>