<svg xmlns="http://www.w3.org/2000/svg" xmlns:xlink="http://www.w3.org/1999/xlink" id="Layer_1" x="0px" y="0px" viewBox="0 0 64 64" style="enable-background:new 0 0 64 64;" xml:space="preserve"><style type="text/css">	.st0{fill:#FFFFFF;stroke:#EC1C24;stroke-width:0.25;stroke-miterlimit:10;}	.st1{fill:url(#SVGID_1_);}	.st2{fill:#FFFFFF;}	.st3{fill:#EC1C24;}</style><circle class="st0" cx="32" cy="32" r="31"></circle><linearGradient id="SVGID_1_" gradientUnits="userSpaceOnUse" x1="3.7915" y1="32" x2="60.2085" y2="32">	<stop offset="0" style="stop-color:#EC1C24"></stop>	<stop offset="0.5056" style="stop-color:#EC1C24;stop-opacity:0.59"></stop>	<stop offset="1" style="stop-color:#EC1C24;stop-opacity:0.8"></stop></linearGradient><circle class="st1" cx="32" cy="32" r="28.2"></circle><circle class="st2" cx="32" cy="32" r="22"></circle><g>	<path class="st3" d="M49,41.6v-0.9H16.6l15.4-25l16.2,26.4L49,41.6v-0.9V41.6l0.7-0.5l-17-27.6c-0.2-0.3-0.4-0.4-0.7-0.4  c-0.3,0-0.6,0.2-0.7,0.4l-17,27.6c-0.2,0.3-0.2,0.6,0,0.9c0.2,0.3,0.4,0.4,0.8,0.4H49c0.3,0,0.6-0.2,0.8-0.4c0.2-0.3,0.1-0.6,0-0.9  L49,41.6z"></path>	<path class="st3" d="M31.1,33.7l-1.2-10.2c0-1.1,0.9-2.1,2.1-2.1s2.1,0.9,2.1,2.1l-1.1,10.2C32.8,35.1,31.2,35,31.1,33.7z"></path>	<path class="st3" d="M33.8,37.1c0,1-0.8,1.8-1.8,1.8c-1,0-1.8-0.8-1.8-1.8c0-1,0.8-1.8,1.8-1.8C33,35.4,33.8,36.2,33.8,37.1z"></path></g></svg>