<svg xmlns="http://www.w3.org/2000/svg" xmlns:xlink="http://www.w3.org/1999/xlink" id="Layer_1" x="0px" y="0px" viewBox="0 0 64 64" style="enable-background:new 0 0 64 64;" xml:space="preserve"><style type="text/css">	.st0{fill:#FFFFFF;stroke:#3B2314;stroke-width:0.25;stroke-miterlimit:10;}	.st1{fill:url(#SVGID_1_);}	.st2{fill:#FFFFFF;}	.st3{fill:#3B2314;}</style><circle class="st0" cx="32" cy="32" r="31"></circle><linearGradient id="SVGID_1_" gradientUnits="userSpaceOnUse" x1="3.7915" y1="32" x2="60.2085" y2="32">	<stop offset="0" style="stop-color:#3B2314"></stop>	<stop offset="0.5056" style="stop-color:#3B2314;stop-opacity:0.59"></stop>	<stop offset="1" style="stop-color:#3B2314;stop-opacity:0.8"></stop></linearGradient><circle class="st1" cx="32" cy="32" r="28.2"></circle><circle class="st2" cx="32" cy="32" r="22"></circle><g>	<g>		<polygon class="st3" points="26.6,30.7 26.6,30.1 17.6,30.1 17.6,28.4 26.1,28.4 26.1,30.7 26.6,30.7 26.6,30.1 26.6,30.7    27.1,30.7 27.1,27.4 16.6,27.4 16.6,31.2 27.1,31.2 27.1,30.7   "></polygon>		<polygon class="st3" points="25.2,33.4 25.2,32.9 16.1,32.9 16.1,31.2 24.7,31.2 24.7,33.4 25.2,33.4 25.2,32.9 25.2,33.4    25.7,33.4 25.7,30.1 15.1,30.1 15.1,33.9 25.7,33.9 25.7,33.4   "></polygon>		<polygon class="st3" points="26.6,36.1 26.6,35.6 17.6,35.6 17.6,33.9 26.1,33.9 26.1,36.1 26.6,36.1 26.6,35.6 26.6,36.1    27.1,36.1 27.1,32.9 16.6,32.9 16.6,36.6 27.1,36.6 27.1,36.1   "></polygon>		<polygon class="st3" points="15.6,41.6 15.6,42.1 24.6,42.1 24.6,43.8 16.1,43.8 16.1,41.6 15.6,41.6 15.6,42.1 15.6,41.6    15.1,41.6 15.1,44.8 25.6,44.8 25.6,41.1 15.1,41.1 15.1,41.6   "></polygon>		<polygon class="st3" points="17,38.8 17,39.4 26.1,39.4 26.1,41.1 17.5,41.1 17.5,38.8 17,38.8 17,39.4 17,38.8 16.5,38.8    16.5,42.1 27.1,42.1 27.1,38.3 16.5,38.3 16.5,38.8   "></polygon>		<polygon class="st3" points="15.6,36.1 15.6,36.6 24.6,36.6 24.6,38.3 16.1,38.3 16.1,36.1 15.6,36.1 15.6,36.6 15.6,36.1    15.1,36.1 15.1,39.4 25.6,39.4 25.6,35.6 15.1,35.6 15.1,36.1   "></polygon>	</g>	<g>		<path class="st3" d="M40.4,27.4v1.7c-0.4,0.1-0.7,0.2-1,0.3v-1h-8.5v1.7H38c-0.5,0.3-0.9,0.6-1.3,1h-6.8v-3.8H40.4z"></path>		<path class="st3" d="M29.4,31.2v1.7h5.9c-0.2,0.3-0.4,0.7-0.6,1h-6.3v-3.8H38c-0.5,0.3-0.9,0.6-1.3,1H29.4z"></path>		<path class="st3" d="M30.9,33.9v1.7h3.2c-0.1,0.3-0.1,0.7-0.2,1h-4v-3.8h5.4c-0.2,0.3-0.4,0.7-0.6,1H30.9z"></path>		<polygon class="st3" points="39.9,22.5 39.9,22 30.9,22 30.9,20.3 39.4,20.3 39.4,22.5 39.9,22.5 39.9,22 39.9,22.5 40.4,22.5    40.4,19.2 29.9,19.2 29.9,23 40.4,23 40.4,22.5   "></polygon>		<polygon class="st3" points="38.5,25.2 38.5,24.7 29.4,24.7 29.4,23 38,23 38,25.2 38.5,25.2 38.5,24.7 38.5,25.2 39,25.2 39,22    28.4,22 28.4,25.7 39,25.7 39,25.2   "></polygon>		<polygon class="st3" points="39.9,27.9 39.9,27.4 30.9,27.4 30.9,25.7 39.4,25.7 39.4,27.9 39.9,27.9 39.9,27.4 39.9,27.9    40.4,27.9 40.4,24.7 29.9,24.7 29.9,28.4 40.4,28.4 40.4,27.9   "></polygon>		<path class="st3" d="M36.6,43.8h-7.1v-1.7h5.8c-0.2-0.3-0.4-0.7-0.5-1h-6.3v3.8h9.5C37.4,44.5,36.9,44.2,36.6,43.8z"></path>		<path class="st3" d="M34.6,41.1h-3.8v-1.7h3.3c-0.1-0.3-0.1-0.7-0.2-1h-4.1v3.8h5.4C35,41.8,34.8,41.4,34.6,41.1z"></path>		<path class="st3" d="M29.4,38.3v-1.7H34c0-0.3,0.1-0.7,0.2-1h-5.7v3.8h5.7c-0.1-0.3-0.1-0.7-0.2-1H29.4z"></path>	</g>	<g>		<path class="st3" d="M49.6,37.5h-0.5c0,1.8-0.7,3.3-1.9,4.5c-1.2,1.2-2.7,1.9-4.5,1.9c-1.8,0-3.3-0.7-4.5-1.9   c-1.2-1.2-1.9-2.7-1.9-4.5c0-1.8,0.7-3.3,1.9-4.5c1.2-1.2,2.7-1.9,4.5-1.9c1.8,0,3.3,0.7,4.5,1.9c1.2,1.2,1.9,2.7,1.9,4.5H49.6   h0.5c0-4.1-3.3-7.4-7.4-7.4c-4.1,0-7.4,3.3-7.4,7.4c0,4.1,3.3,7.4,7.4,7.4c4.1,0,7.4-3.3,7.4-7.4H49.6z"></path>	</g>	<circle class="st3" cx="44.5" cy="39.5" r="1.1"></circle>	<circle class="st3" cx="40.8" cy="35.6" r="1.1"></circle>			<rect x="42.1" y="32.9" transform="matrix(0.7071 0.7071 -0.7071 0.7071 39.0556 -19.2192)" class="st3" width="1.2" height="9.3"></rect>	<g>		<path class="st3" d="M37.4,17.3c-0.1,0-0.1-0.1-0.1-0.1c0-0.1,0-0.1,0-0.2s0-0.1,0.1-0.2c0-0.1,0.1-0.1,0.1-0.1s0.1-0.1,0.2-0.1   c0.1,0,0.1,0,0.2,0c0.3,0.1,0.6,0.2,0.9,0.2c0.2,0,0.4,0,0.5-0.1c0.1-0.1,0.2-0.2,0.2-0.3c0-0.2-0.1-0.3-0.4-0.4l-0.9-0.3   c-0.3-0.1-0.6-0.3-0.7-0.4c-0.1-0.2-0.2-0.4-0.2-0.6c0-0.4,0.1-0.7,0.4-0.9c0.3-0.2,0.7-0.3,1.2-0.3c0.2,0,0.5,0,0.7,0.1   s0.4,0.2,0.6,0.3c0.1,0.1,0.1,0.1,0.1,0.2c0,0.1,0,0.1,0,0.2c0,0.1-0.1,0.1-0.1,0.2S40,14.4,40,14.4c-0.1,0-0.1,0-0.2,0   c-0.2-0.1-0.3-0.2-0.5-0.2c-0.1,0-0.3-0.1-0.5-0.1c-0.1,0-0.2,0-0.3,0s-0.2,0.1-0.3,0.1c-0.1,0.1-0.1,0.1-0.1,0.2   c0,0.1,0,0.2,0.1,0.3c0.1,0.1,0.2,0.1,0.4,0.2c0,0,0.1,0,0.2,0c0.1,0,0.2,0,0.2,0c0.2,0.1,0.3,0.1,0.4,0.2c0.1,0,0.2,0.1,0.4,0.2   s0.2,0.1,0.3,0.2c0.1,0.1,0.1,0.2,0.2,0.3c0,0.1,0.1,0.2,0.1,0.4c0,0.4-0.1,0.7-0.4,0.9c-0.3,0.2-0.7,0.3-1.2,0.3   C38.2,17.6,37.8,17.5,37.4,17.3z M34.1,17.5c-0.1,0-0.1-0.1-0.2-0.2c0-0.1-0.1-0.1-0.1-0.2s0-0.2,0-0.3v-2.5c0-0.1,0-0.2,0-0.3   c0-0.1,0-0.1,0.1-0.2c0-0.1,0.1-0.1,0.1-0.2s0.1-0.1,0.2-0.1c0.1,0,0.2,0,0.3,0h1.8c0.1,0,0.2,0,0.3,0.1s0.1,0.2,0.1,0.3   s0,0.2-0.1,0.3s-0.2,0.1-0.3,0.1h-1.4v0.9h1.3c0.1,0,0.2,0,0.3,0.1c0.1,0.1,0.1,0.2,0.1,0.3s0,0.2-0.1,0.3   c-0.1,0.1-0.2,0.1-0.3,0.1h-1.3v0.9h1.5c0.1,0,0.2,0,0.3,0.1c0.1,0.1,0.1,0.2,0.1,0.3c0,0.1,0,0.2-0.1,0.3   c-0.1,0.1-0.2,0.1-0.3,0.1h-2C34.3,17.5,34.2,17.5,34.1,17.5z M30.1,17.4c-0.1-0.1-0.1-0.3-0.1-0.4V14c0-0.2,0-0.3,0.1-0.4   c0.1-0.1,0.2-0.2,0.4-0.2c0.1,0,0.3,0.1,0.4,0.2s0.2,0.3,0.2,0.4l0,1.3l1.3-1.4c0.1-0.1,0.1-0.1,0.1-0.2c0,0,0.1-0.1,0.1-0.1   c0,0,0.1-0.1,0.1-0.1s0.1,0,0.1,0c0.1,0,0.2,0,0.3,0.1c0.1,0.1,0.1,0.2,0.1,0.3c0,0.1-0.1,0.3-0.3,0.5l-0.9,1l1,1.1   c0.2,0.2,0.3,0.4,0.3,0.6c0,0.1,0,0.2-0.1,0.3c-0.1,0.1-0.2,0.1-0.3,0.1l-0.1,0l-0.1-0.1l-0.1-0.1l-0.1-0.1l-0.1-0.1   c0,0,0-0.1-0.1-0.1c0-0.1-0.1-0.1-0.1-0.1l-1.2-1.5l0,1.4c0,0.2-0.1,0.3-0.2,0.4c-0.1,0.1-0.2,0.2-0.4,0.2   C30.3,17.5,30.2,17.5,30.1,17.4z"></path>	</g></g></svg>