<svg xmlns="http://www.w3.org/2000/svg" xmlns:xlink="http://www.w3.org/1999/xlink" id="Layer_1" x="0px" y="0px" viewBox="0 0 64 64" style="enable-background:new 0 0 64 64;" xml:space="preserve"><style type="text/css">	.st0{fill:#FFFFFF;stroke:#1B75BB;stroke-width:0.25;stroke-miterlimit:10;}	.st1{fill:url(#SVGID_1_);}	.st2{fill:#FFFFFF;}	.st3{fill:#1B75BB;}</style><g>	<circle class="st0" cx="32" cy="32" r="31"></circle>	<linearGradient id="SVGID_1_" gradientUnits="userSpaceOnUse" x1="3.7915" y1="32" x2="60.2085" y2="32">		<stop offset="0" style="stop-color:#1B75BB"></stop>		<stop offset="0.5056" style="stop-color:#1B75BB;stop-opacity:0.59"></stop>		<stop offset="1" style="stop-color:#1B75BB;stop-opacity:0.8"></stop>	</linearGradient>	<circle class="st1" cx="32" cy="32" r="28.2"></circle>	<circle class="st2" cx="32" cy="32" r="22"></circle>	<g>		<g>			<path class="st3" d="M43.9,31l-0.7-0.7c-1.5,1.5-3.4,2.3-5.3,2.3c-1.9,0-3.9-0.7-5.4-2.2c-1.5-1.5-2.3-3.4-2.3-5.3    c0-1.9,0.7-3.9,2.2-5.4c1.5-1.5,3.4-2.3,5.3-2.3c1.9,0,3.9,0.7,5.4,2.2c1.5,1.5,2.3,3.4,2.3,5.3c0,1.9-0.7,3.9-2.2,5.4L43.9,31    l0.7,0.7c1.9-1.9,2.8-4.4,2.7-6.8c0-2.5-1-4.9-2.9-6.8c-1.9-1.9-4.4-2.8-6.8-2.7c-2.5,0-4.9,1-6.8,2.9c-1.9,1.9-2.8,4.4-2.7,6.8    c0,2.5,1,4.9,2.9,6.8c1.9,1.9,4.4,2.8,6.8,2.7c2.5,0,4.9-1,6.8-2.9L43.9,31z"></path>		</g>		<g>			<rect x="21" y="34.3" transform="matrix(0.715 0.6991 -0.6991 0.715 34.6646 -4.3561)" class="st3" width="3.3" height="12.2"></rect>							<rect x="27.2" y="32.6" transform="matrix(0.715 0.6991 -0.6991 0.715 32.0015 -10.4917)" class="st3" width="3.3" height="2.7"></rect>		</g>	</g></g></svg>