<svg xmlns="http://www.w3.org/2000/svg" xmlns:xlink="http://www.w3.org/1999/xlink" id="Layer_1" x="0px" y="0px" viewBox="0 0 64 64" style="enable-background:new 0 0 64 64;" xml:space="preserve"><style type="text/css">	.st0{fill:#FFFFFF;stroke:#00A69C;stroke-width:0.25;stroke-miterlimit:10;}	.st1{fill:url(#SVGID_1_);}	.st2{fill:#FFFFFF;}	.st3{fill:#00A69C;}</style><g>	<g>		<circle class="st0" cx="32" cy="32" r="31"></circle>		<linearGradient id="SVGID_1_" gradientUnits="userSpaceOnUse" x1="3.7915" y1="32" x2="60.2085" y2="32">			<stop offset="0" style="stop-color:#00A69C"></stop>			<stop offset="0.5056" style="stop-color:#00A69C;stop-opacity:0.59"></stop>			<stop offset="1" style="stop-color:#00A69C;stop-opacity:0.8"></stop>		</linearGradient>		<circle class="st1" cx="32" cy="32" r="28.2"></circle>		<circle class="st2" cx="32" cy="32" r="22"></circle>	</g>	<g>		<path class="st3" d="M49.2,31.3c-0.2-4.6-2.2-8.8-5.4-11.8c-0.3-0.3-0.7-0.6-1-0.9c-2.2-1.7-4.7-3-7.5-3.5c-0.5-0.1-1-0.2-1.5-0.2   c-0.3,0-0.7-0.1-1-0.1c-0.2,0-0.5,0-0.7,0c-0.2,0-0.5,0-0.7,0c-0.4,0-0.8,0-1.2,0.1c-0.5,0.1-1,0.1-1.6,0.2   c-2.7,0.6-5.2,1.8-7.3,3.5c-0.4,0.3-0.7,0.6-1,0.9c-3.2,3-5.2,7.1-5.4,11.8c0,0.3,0,0.5,0,0.8c0,0.2,0,0.4,0,0.7   c0.2,4.7,2.2,8.8,5.3,11.8c0.3,0.3,0.7,0.6,1,0.9c2.1,1.7,4.6,2.9,7.4,3.5c0.5,0.1,1,0.2,1.6,0.2c0.4,0.1,0.8,0.1,1.2,0.1   c0.2,0,0.5,0,0.7,0c0.2,0,0.5,0,0.7,0c0.3,0,0.7,0,1-0.1c0.5-0.1,1-0.1,1.5-0.2c2.8-0.5,5.4-1.8,7.6-3.6c0.4-0.3,0.7-0.6,1-0.9   c3.1-3,5.2-7.2,5.3-11.8c0-0.2,0-0.4,0-0.7C49.3,31.8,49.2,31.5,49.2,31.3z M41.8,19.5c-0.9,0.7-1.8,1.3-2.9,1.8   c-0.7-1.6-1.5-3.1-2.4-4.5C38.4,17.3,40.2,18.3,41.8,19.5z M34.9,16.4c1.1,1.7,2.1,3.5,2.9,5.4c-1.6,0.6-3.3,1-5,1.1v-6.7   C33.4,16.2,34.2,16.2,34.9,16.4z M31.3,16.1v6.7c-1.8-0.1-3.6-0.5-5.2-1.1c0.7-1.9,1.7-3.6,2.8-5.3C29.7,16.3,30.5,16.2,31.3,16.1   z M22.7,19.1C22.8,19.1,22.8,19.1,22.7,19.1c0.2-0.1,0.4-0.3,0.5-0.3c0.1-0.1,0.3-0.2,0.4-0.3c0,0,0,0,0.1,0   c0.3-0.2,0.5-0.3,0.8-0.4c0,0,0,0,0.1,0c0.1-0.1,0.3-0.2,0.5-0.2c0.1,0,0.1-0.1,0.2-0.1c0.1,0,0.2-0.1,0.3-0.1   c0.2-0.1,0.5-0.2,0.7-0.3c0.1-0.1,0.3-0.1,0.5-0.2l0.5-0.2c-0.9,1.4-1.7,2.8-2.3,4.3c-1-0.5-1.9-1-2.7-1.7   C22.4,19.4,22.6,19.2,22.7,19.1z M16.2,30.4C16.2,30.4,16.2,30.3,16.2,30.4c0-0.3,0.1-0.6,0.1-0.8c0-0.3,0.1-0.5,0.1-0.8   c0.1-0.3,0.1-0.5,0.2-0.8c0,0,0,0,0-0.1c0,0,0-0.1,0-0.1c0,0,0,0,0-0.1c0-0.2,0.1-0.3,0.1-0.5c0.1-0.2,0.1-0.4,0.2-0.6   c0.1-0.1,0.1-0.3,0.2-0.4c0-0.1,0.1-0.3,0.2-0.4c0.1-0.2,0.2-0.4,0.3-0.6c0.1-0.2,0.2-0.5,0.3-0.7c0.1-0.2,0.2-0.3,0.3-0.5   c0.1-0.3,0.3-0.5,0.5-0.8l0.2-0.3h0c0,0,0.1-0.1,0.1-0.1c0-0.1,0.1-0.1,0.1-0.2c0.1-0.2,0.2-0.3,0.3-0.5c0.1-0.2,0.2-0.3,0.4-0.5   c0.1-0.2,0.3-0.3,0.4-0.5c0.1-0.1,0.3-0.3,0.4-0.4c0.1-0.1,0.2-0.3,0.4-0.4c0,0,0,0,0.1-0.1c1,0.8,2.1,1.5,3.3,2.1   c-1,2.8-1.6,5.7-1.7,8.8h-6.6C16.1,31,16.2,30.7,16.2,30.4z M20.7,43.2c-0.1-0.1-0.2-0.2-0.3-0.3l0,0c-0.1-0.1-0.3-0.3-0.4-0.4   c0,0,0,0,0,0c-0.2-0.2-0.3-0.4-0.5-0.5c0,0,0,0,0-0.1c0,0,0,0,0,0c-0.1-0.1-0.2-0.3-0.3-0.4c0,0-0.1-0.1-0.1-0.1   c0-0.1-0.1-0.1-0.1-0.2c0,0,0,0,0,0h0c-0.1-0.1-0.1-0.2-0.2-0.3c0,0-0.1-0.1-0.1-0.1c-0.1-0.1-0.1-0.2-0.2-0.3   c0-0.1-0.1-0.1-0.1-0.1c0,0-0.1-0.1-0.1-0.1c0,0,0-0.1-0.1-0.1c0,0,0-0.1,0-0.1c-0.1-0.1-0.1-0.3-0.2-0.4   c-0.1-0.1-0.1-0.2-0.2-0.3c-0.1-0.1-0.1-0.2-0.2-0.3c-0.1-0.3-0.3-0.6-0.4-0.9c-0.1-0.2-0.1-0.4-0.2-0.6c-0.1-0.2-0.2-0.5-0.2-0.7   c0,0,0,0,0-0.1c0-0.1-0.1-0.2-0.1-0.3c0,0,0,0,0-0.1c0,0,0,0,0,0c0,0,0,0,0,0c0,0,0,0,0,0c0,0,0,0,0,0c0,0,0,0,0,0   c0-0.1,0-0.1,0-0.2c0-0.1,0-0.1-0.1-0.2c0-0.1-0.1-0.3-0.1-0.4c0-0.1-0.1-0.3-0.1-0.4c0,0,0,0,0-0.1c0-0.1,0-0.2,0-0.2   c0-0.1,0-0.2,0-0.2l0-0.2c0-0.1,0-0.1,0-0.2h0c0,0,0-0.1,0-0.1v0c0-0.1,0-0.2,0-0.3c0-0.3,0-0.5-0.1-0.8h6.6   c0.1,3.1,0.6,6,1.6,8.8c-1.2,0.6-2.3,1.3-3.3,2.1C21,43.4,20.8,43.3,20.7,43.2z M22.2,44.5c0.8-0.7,1.8-1.3,2.7-1.7   c0.6,1.5,1.4,3,2.3,4.4C25.4,46.6,23.7,45.7,22.2,44.5z M31.3,47.9c-0.8,0-1.6-0.1-2.4-0.3c-1.1-1.7-2.1-3.5-2.8-5.4   c1.6-0.7,3.4-1,5.2-1.1V47.9z M31.3,39v0.7c-2,0.1-3.9,0.5-5.7,1.2c-0.9-2.6-1.4-5.4-1.5-8.3h1.1v-1.4h-1.1   c0.1-2.9,0.6-5.7,1.5-8.3c1.8,0.7,3.7,1.1,5.7,1.2v1h1.4v-1c1.9-0.1,3.8-0.5,5.5-1.1c0.9,2.6,1.4,5.3,1.5,8.2h-1.2v1.4h1.2   c-0.1,2.9-0.6,5.6-1.4,8.2c-1.7-0.7-3.6-1.1-5.5-1.1V39H31.3z M34.9,47.6c-0.7,0.1-1.4,0.2-2.2,0.3v-6.8c1.8,0.1,3.5,0.4,5.1,1.1   C37,44.1,36,45.9,34.9,47.6z M36.5,47.2c0.9-1.4,1.7-3,2.4-4.6c1,0.5,2,1.1,2.9,1.8C40.3,45.7,38.5,46.7,36.5,47.2z M42.9,43.6   c-1.1-0.9-2.2-1.6-3.5-2.2c1-2.7,1.5-5.7,1.6-8.7h6.8C47.7,37,45.8,40.8,42.9,43.6z M41,31.3c-0.1-3.1-0.7-6-1.6-8.7   c1.2-0.6,2.4-1.3,3.4-2.2c2.9,2.7,4.8,6.6,5,10.9H41z"></path>		<g>			<path class="st3" d="M38.5,34.4l-2-3.9h-9l-2,3.9c-0.3,0.7,0.2,1,0.2,1c0.6,0.3,0.9-0.3,0.9-0.3l1.3-2.5c1.2,2.2,0.1,5,0.1,5    c0.6,0.6,1.4,1,2.1,1.1c0.1-0.3,0.4-1.4-0.1-2.3l-0.6,1.2c0,0-0.1,0.3-0.4,0.1c0,0-0.2-0.1-0.1-0.5l0.9-1.9h4.2l0.9,1.9    c0.1,0.3-0.1,0.5-0.1,0.5c-0.3,0.2-0.4-0.1-0.4-0.1l-0.6-1.2c-0.5,0.9-0.2,2-0.1,2.3c0.7-0.2,1.5-0.5,2.1-1.1c0,0-1-2.8,0.1-5    l1.3,2.5c0,0,0.3,0.7,0.9,0.3C38.2,35.4,38.7,35.1,38.5,34.4z M32,34.8c-0.6,0-1.1-0.5-1.1-1.1c0-0.6,0.5-1.2,1.1-1.2    c0.6,0,1.1,0.5,1.1,1.2C33.1,34.3,32.6,34.8,32,34.8z"></path>			<circle class="st3" cx="29.9" cy="28.2" r="1.7"></circle>			<circle class="st3" cx="34.2" cy="28.2" r="1.7"></circle>		</g>	</g></g></svg>