<svg xmlns="http://www.w3.org/2000/svg" xmlns:xlink="http://www.w3.org/1999/xlink" id="Layer_1" x="0px" y="0px" viewBox="0 0 64 64" style="enable-background:new 0 0 64 64;" xml:space="preserve"><style type="text/css">	.st0{fill:#FFFFFF;stroke:#F6921E;stroke-width:0.25;stroke-miterlimit:10;}	.st1{fill:url(#SVGID_1_);}	.st2{fill:#FFFFFF;}	.st3{fill:#F6921E;}</style><circle class="st0" cx="32" cy="32" r="31"></circle><linearGradient id="SVGID_1_" gradientUnits="userSpaceOnUse" x1="3.7915" y1="32" x2="60.2085" y2="32">	<stop offset="0" style="stop-color:#F6921E"></stop>	<stop offset="0.5056" style="stop-color:#F6921E;stop-opacity:0.59"></stop>	<stop offset="1" style="stop-color:#F6921E;stop-opacity:0.8"></stop></linearGradient><circle class="st1" cx="32" cy="32" r="28.2"></circle><circle class="st2" cx="32" cy="32" r="22"></circle><g>	<path class="st3" d="M44.5,26.1v-6.2h-7v12.2h-9.9v10.1h12.3v-0.9h-1.5V20.8h5.3v20.6h-1.4v0.9h5.5v-0.9h-3.2V27H49v6.5h0.9v-7.3  H44.5z M37.4,41.4h-9V33h9V41.4z"></path>	<rect x="29.2" y="33.8" class="st3" width="7.6" height="0.7"></rect>	<rect x="45.4" y="27.6" class="st3" width="3.1" height="0.7"></rect>	<rect x="45.4" y="29.2" class="st3" width="3.1" height="0.7"></rect>	<rect x="45.4" y="30.7" class="st3" width="3.1" height="0.7"></rect>	<rect x="45.4" y="32.3" class="st3" width="3.1" height="0.7"></rect>	<rect x="45.4" y="33.9" class="st3" width="3.1" height="0.7"></rect>	<rect x="45.4" y="37" class="st3" width="1.5" height="0.7"></rect>	<rect x="45.4" y="35.4" class="st3" width="1.5" height="0.7"></rect>	<rect x="45.4" y="38.6" class="st3" width="1.5" height="0.7"></rect>	<rect x="45.4" y="40.1" class="st3" width="2.3" height="0.7"></rect>	<rect x="29.2" y="35.3" class="st3" width="7.6" height="0.7"></rect>	<rect x="29.2" y="36.8" class="st3" width="7.6" height="0.7"></rect>	<rect x="29.2" y="38.3" class="st3" width="7.6" height="0.7"></rect>	<rect x="29.2" y="39.9" class="st3" width="7.6" height="0.7"></rect>	<rect x="39.1" y="21.5" class="st3" width="1.5" height="1.5"></rect>	<rect x="41.4" y="21.5" class="st3" width="1.5" height="1.5"></rect>	<rect x="39.1" y="23.8" class="st3" width="1.5" height="1.5"></rect>	<rect x="41.4" y="23.8" class="st3" width="1.5" height="1.5"></rect>	<rect x="39.1" y="26.1" class="st3" width="1.5" height="1.5"></rect>	<rect x="41.4" y="26.1" class="st3" width="1.5" height="1.5"></rect>	<rect x="39.1" y="28.4" class="st3" width="1.5" height="1.5"></rect>	<rect x="41.4" y="28.4" class="st3" width="1.5" height="1.5"></rect>	<rect x="39.1" y="30.7" class="st3" width="1.5" height="1.5"></rect>	<rect x="41.4" y="30.7" class="st3" width="1.5" height="1.5"></rect>	<rect x="39.1" y="33" class="st3" width="1.5" height="1.5"></rect>	<rect x="41.4" y="33" class="st3" width="1.5" height="1.5"></rect>	<path class="st3" d="M41,35.9c-1.2,0-2.2,1-2.2,2.2c0,1.1,0.8,2,1.9,2.2v1.9h0.6v-1.9c1.1-0.2,1.9-1.1,1.9-2.2  C43.2,36.9,42.2,35.9,41,35.9z M42.1,39.3c-0.3,0.3-0.7,0.5-1.1,0.5c-0.4,0-0.8-0.2-1.1-0.5c-0.3-0.3-0.5-0.7-0.5-1.1  c0-0.4,0.2-0.8,0.5-1.1c0.3-0.3,0.7-0.5,1.1-0.5c0.4,0,0.8,0.2,1.1,0.5c0.3,0.3,0.5,0.7,0.5,1.1C42.6,38.6,42.4,39,42.1,39.3z"></path>	<path class="st3" d="M41.9,38.2h-0.3c0,0.3-0.3,0.6-0.6,0.6c-0.3,0-0.6-0.3-0.6-0.6c0-0.3,0.3-0.6,0.6-0.6c0.3,0,0.6,0.3,0.6,0.6  H41.9h0.3c0-0.7-0.6-1.2-1.2-1.2c-0.7,0-1.2,0.6-1.2,1.2c0,0.7,0.6,1.2,1.2,1.2c0.7,0,1.2-0.6,1.2-1.2H41.9z"></path>	<path class="st3" d="M51.1,36.1c-0.3-0.5-0.7-0.9-1-1.3c-0.3-0.3-0.6-0.6-0.6-0.6l-0.2-0.2l-0.2,0.2c0,0-0.5,0.4-0.9,1  c-0.2,0.3-0.5,0.6-0.6,0.9c-0.2,0.3-0.3,0.6-0.3,1c0,0.3,0.1,0.7,0.3,1c0.3,0.5,0.7,0.9,1,1.3c0.2,0.2,0.4,0.4,0.5,0.5v2.4h0.6  v-2.4c0.2-0.2,0.5-0.5,0.8-0.9c0.2-0.3,0.5-0.6,0.6-0.9c0.2-0.3,0.3-0.6,0.3-1C51.5,36.8,51.3,36.5,51.1,36.1z M50.6,37.8  c-0.2,0.4-0.6,0.8-0.9,1.2c-0.1,0.1-0.2,0.3-0.3,0.3c-0.2-0.2-0.4-0.4-0.7-0.8c-0.2-0.3-0.4-0.5-0.6-0.8c-0.1-0.3-0.2-0.5-0.2-0.6  c0-0.2,0.1-0.4,0.2-0.7c0.2-0.4,0.6-0.8,0.9-1.2c0.1-0.1,0.2-0.3,0.3-0.3c0.2,0.2,0.4,0.4,0.7,0.8c0.2,0.3,0.4,0.5,0.6,0.8  c0.1,0.3,0.2,0.5,0.2,0.6C50.8,37.3,50.8,37.5,50.6,37.8z"></path>	<path class="st3" d="M22.9,40.9c0,0.1,0,0.2,0,0.4h0.4c0-0.1-0.1-0.2-0.1-0.4c0-0.5,0.4-1,1-1c0.5,0,1,0.4,1,1c0,0.1,0,0.2-0.1,0.4  h0.4c0-0.1,0-0.2,0-0.4c0-0.7-0.6-1.4-1.4-1.4C23.5,39.5,22.9,40.2,22.9,40.9z M12.5,39.8V41l0.3,0.3h1.3c0-0.1,0-0.2,0-0.4  c0-0.9,0.7-1.6,1.6-1.6c0.9,0,1.6,0.7,1.6,1.6c0,0.1,0,0.2,0,0.4h5.5c0-0.1,0-0.2,0-0.4c0-0.9,0.7-1.6,1.6-1.6  c0.9,0,1.6,0.7,1.6,1.6c0,0.1,0,0.2,0,0.4h0.4l0.5-0.2v-1.8l-1.8-3.1h-6.7l-2.3,2.1h-2C13.7,38.2,12.6,38.8,12.5,39.8z M22,36.7  h2.2l0.5,1V38H22V36.7z M17.5,38l1.4-1.3h2.6V38H17.5z M14.3,40.9c0,0.1,0,0.2,0,0.4h0.4c0-0.1-0.1-0.2-0.1-0.4c0-0.5,0.4-1,1-1  c0.5,0,1,0.4,1,1c0,0.1,0,0.2-0.1,0.4h0.4c0-0.1,0-0.2,0-0.4c0-0.7-0.6-1.4-1.4-1.4C14.9,39.5,14.3,40.2,14.3,40.9z"></path>	<path class="st3" d="M22.9,40.9c0,0.1,0,0.2,0,0.4c0.2,0.6,0.7,1,1.3,1s1.2-0.4,1.3-1c0-0.1,0-0.2,0-0.4c0-0.7-0.6-1.4-1.4-1.4  C23.5,39.5,22.9,40.2,22.9,40.9z M23.3,41.3c0-0.1-0.1-0.2-0.1-0.4c0-0.5,0.4-1,1-1c0.5,0,1,0.4,1,1c0,0.1,0,0.2-0.1,0.4  c-0.1,0.4-0.5,0.6-0.9,0.6C23.8,41.9,23.4,41.6,23.3,41.3z"></path>	<path class="st3" d="M14.3,40.9c0,0.1,0,0.2,0,0.4c0.2,0.6,0.7,1,1.3,1c0.6,0,1.2-0.4,1.3-1c0-0.1,0-0.2,0-0.4  c0-0.7-0.6-1.4-1.4-1.4C14.9,39.5,14.3,40.2,14.3,40.9z M14.7,41.3c0-0.1-0.1-0.2-0.1-0.4c0-0.5,0.4-1,1-1c0.5,0,1,0.4,1,1  c0,0.1,0,0.2-0.1,0.4c-0.1,0.4-0.5,0.6-0.9,0.6C15.2,41.9,14.8,41.6,14.7,41.3z"></path></g></svg>