<svg xmlns="http://www.w3.org/2000/svg" xmlns:xlink="http://www.w3.org/1999/xlink" id="Layer_1" x="0px" y="0px" viewBox="0 0 64 64" style="enable-background:new 0 0 64 64;" xml:space="preserve"><style type="text/css">	.st0{fill:#FFFFFF;stroke:#FF9201;stroke-width:0.25;stroke-miterlimit:10;}	.st1{fill:#FF9201;}	.st2{fill:#FFFFFF;}</style><circle class="st0" cx="32" cy="32" r="31"></circle><circle class="st1" cx="32" cy="32" r="28.2"></circle><circle class="st2" cx="32" cy="32" r="22"></circle><g>	<path class="st1" d="M47.7,30.1c-1-1-1.9-1.9-2.8-2.8c-0.5,0.5-0.9,0.9-1.4,1.4c0.4,0.3,0.8,0.7,1.2,1.1c0,0,0,0.1-0.1,0.1h-4.1  c-0.2-1.6-0.8-3.1-1.8-4.4c1-1,2-2,3-3V24h1.9v-5h-5.1v2h1.7c-1,1-2,2-3,3c-1.2-1-2.7-1.6-4.4-1.8v-4.1c0.4,0.5,0.8,0.9,1.2,1.3  c0.5-0.5,1-1,1.4-1.4c-0.3-0.3-0.6-0.6-0.9-0.9c-0.8-0.8-1.6-1.6-2.4-2.4c-0.1-0.1-0.1-0.2-0.2-0.2h-0.1c-0.1,0.1-0.1,0.2-0.2,0.3  c-1,1-2,2-3.1,3.1c-0.1,0.1-0.2,0.2-0.2,0.2c0.5,0.5,0.9,0.9,1.4,1.4c0.4-0.4,0.8-0.8,1.2-1.3v4.1c-1.7,0.2-3.1,0.8-4.4,1.8  c-1-1-2-2-3-3h1.8v-1.9h-5.1v5h1.9v-1.5c1,1,2,2,3,3c-1,1.3-1.6,2.7-1.8,4.4h-4c0,0,0,0,0-0.1c0.4-0.4,0.8-0.8,1.2-1.1  c-0.5-0.5-0.9-0.9-1.4-1.4c-1.2,1.2-2.4,2.4-3.5,3.5c1.1,1.2,2.3,2.3,3.5,3.5c0.4-0.4,0.9-0.9,1.4-1.4c-0.4-0.3-0.8-0.7-1.2-1.1h4  c0.1,1,0.4,1.8,0.7,2.7h2.2c-0.5-0.8-0.9-1.8-1-2.9c-0.4-3.3,1.8-6.5,5.3-7.3c3.6-0.8,7.5,1.7,8,5.4c0.1,0.4,0.1,0.8,0.1,1.1  c-0.1,1.4-0.4,2.7-1.1,3.7h2.2c0.4-0.9,0.6-1.7,0.8-2.6h4.1c0,0,0,0.1,0.1,0.1c-0.4,0.4-0.8,0.7-1.1,1.1c0.5,0.5,0.9,0.9,1.4,1.4  c0.1-0.1,0.1-0.1,0.2-0.2c1-1,2-2,3-3c0.1-0.1,0.2-0.1,0.3-0.2v-0.1C48.2,30.5,47.9,30.3,47.7,30.1z M38.6,39.3  c-3.2-3.8-9.6-4.9-14,0.8c-0.9,1.4-1.4,3-1.4,4.7c0,0.9,0,1.9,0,2.9h17.3c0-1,0-1.9,0-2.8C40.6,42.7,39.9,40.8,38.6,39.3z   M38.6,45.7H25.2C25,42.9,26,40.5,28.4,39c2.3-1.4,4.7-1.4,7,0C37.9,40.5,38.8,42.9,38.6,45.7z"></path>	<path class="st1" d="M31.8,26c-2.5,0-4.7,2.2-4.8,4.7c0,1.5,0.6,2.9,1.7,3.8c0.8,0.7,1.9,1.2,3.1,1.2c1.2,0,2.4-0.4,3.2-1.2  c1-0.9,1.6-2.2,1.7-3.6C36.7,28.1,34.6,26,31.8,26z M31.9,27.9c1.6,0,2.9,1.4,2.9,2.9c0,1.6-1.3,2.9-2.9,2.9S29,32.3,29,30.8  C29,29.2,30.4,27.9,31.9,27.9z"></path></g></svg>