<svg xmlns="http://www.w3.org/2000/svg" xmlns:xlink="http://www.w3.org/1999/xlink" id="Layer_1" x="0px" y="0px" viewBox="0 0 64 64" style="enable-background:new 0 0 64 64;" xml:space="preserve"><style type="text/css">	.st0{fill:#FFFFFF;stroke:#FF9201;stroke-width:0.25;stroke-miterlimit:10;}	.st1{fill:#FF9201;}	.st2{fill:#FFFFFF;}</style><circle class="st0" cx="32" cy="32" r="31"></circle><circle class="st1" cx="32" cy="32" r="28.2"></circle><circle class="st2" cx="32" cy="32" r="22"></circle><g>	<path class="st1" d="M42.8,34.4c-0.2-0.2-0.3-0.6-0.3-1.1s0.1-0.9,0.3-1.1c0.2-0.2,0.5-0.3,0.8-0.3s0.6,0.1,0.8,0.3  s0.3,0.6,0.3,1.1s-0.1,0.9-0.3,1.1c-0.2,0.2-0.5,0.4-0.8,0.4C43.3,34.7,43,34.6,42.8,34.4z M45.6,35.9c0.4-0.2,0.7-0.6,0.9-1.1  s0.3-1,0.3-1.6s-0.1-1.2-0.3-1.6c-0.2-0.5-0.5-0.8-0.9-1s-0.8-0.4-1.3-0.4c-0.4,0-0.7,0.1-1,0.2c-0.3,0.2-0.6,0.4-0.7,0.6v-2.3  c0-0.3-0.1-0.6-0.3-0.8c-0.2-0.2-0.4-0.3-0.8-0.3c-0.7,0-1,0.4-1,1.1v6.4c0,0.7,0.3,1.1,1,1.1c0.6,0,1-0.3,1-0.9  c0.2,0.3,0.4,0.5,0.7,0.7s0.7,0.2,1.1,0.2C44.8,36.3,45.2,36.2,45.6,35.9z M37.2,35.4c0.1,0.6,0.4,0.9,1,0.9c0.7,0,1-0.4,1-1.1  v-3.9c0-0.3-0.1-0.6-0.3-0.8c-0.2-0.2-0.4-0.3-0.8-0.3c-0.7,0-1.1,0.4-1.1,1.1v2.3c0,0.3-0.1,0.6-0.3,0.8s-0.4,0.3-0.7,0.3  c-0.5,0-0.7-0.3-0.7-0.9v-2.5c0-0.3-0.1-0.6-0.3-0.8c-0.2-0.2-0.4-0.3-0.8-0.3c-0.7,0-1.1,0.4-1.1,1.1v2.5c0,0.9,0.2,1.5,0.5,1.9  c0.4,0.4,0.9,0.6,1.7,0.6C36.2,36.3,36.8,36,37.2,35.4z M26.1,36c0.2-0.2,0.3-0.5,0.3-0.8v-2.3h3.4v2.3c0,0.4,0.1,0.6,0.3,0.8  c0.2,0.2,0.5,0.3,0.8,0.3s0.6-0.1,0.8-0.3c0.2-0.2,0.3-0.5,0.3-0.8v-6.3c0-0.4-0.1-0.6-0.3-0.8c-0.2-0.2-0.5-0.3-0.8-0.3  s-0.6,0.1-0.8,0.3c-0.2,0.2-0.3,0.5-0.3,0.8V31h-3.4v-2.2c0-0.4-0.1-0.6-0.3-0.8c-0.2-0.2-0.5-0.3-0.8-0.3s-0.6,0.1-0.8,0.3  c-0.2,0.2-0.3,0.5-0.3,0.8v6.3c0,0.4,0.1,0.6,0.3,0.8c0.2,0.2,0.5,0.3,0.8,0.3C25.6,36.3,25.9,36.2,26.1,36z M21.1,31.8  c0.2,0.2,0.3,0.5,0.3,0.8h-2.2c0.1-0.4,0.2-0.6,0.4-0.8c0.2-0.2,0.5-0.3,0.8-0.3C20.6,31.6,20.9,31.7,21.1,31.8z M21.6,36.2  c0.3-0.1,0.6-0.2,0.9-0.3c0.2-0.1,0.4-0.2,0.4-0.4c0.1-0.2,0.1-0.4,0-0.6c-0.1-0.2-0.2-0.3-0.3-0.4c-0.2-0.1-0.4-0.1-0.6,0  s-0.4,0.2-0.7,0.2c-0.2,0-0.4,0.1-0.6,0.1c-0.4,0-0.8-0.1-1-0.2c-0.2-0.2-0.4-0.4-0.5-0.8h3.4c0.4,0,0.5-0.2,0.5-0.5  c0-0.6-0.1-1.1-0.3-1.6c-0.2-0.5-0.6-0.8-1-1s-0.9-0.4-1.5-0.4s-1.1,0.1-1.6,0.4s-0.8,0.6-1.1,1.1s-0.4,1-0.4,1.6s0.1,1.2,0.4,1.6  c0.3,0.5,0.7,0.8,1.2,1.1c0.5,0.2,1.1,0.4,1.8,0.4C20.9,36.3,21.2,36.3,21.6,36.2z"></path></g></svg>