<svg xmlns="http://www.w3.org/2000/svg" xmlns:xlink="http://www.w3.org/1999/xlink" id="Layer_1" x="0px" y="0px" viewBox="0 0 64 64" style="enable-background:new 0 0 64 64;" xml:space="preserve"><style type="text/css">	.st0{fill:#FFFFFF;stroke:#FF9201;stroke-width:0.25;stroke-miterlimit:10;}	.st1{fill:#FF9201;}	.st2{fill:#FFFFFF;}</style><circle class="st0" cx="32" cy="32" r="31"></circle><circle class="st1" cx="32" cy="32" r="28.2"></circle><circle class="st2" cx="32" cy="32" r="22"></circle><g>	<g>		<path class="st1" d="M39.1,25.2c0.2-0.1,0.4-0.2,0.5-0.4c0.1-0.2,0.2-0.3,0.2-0.5c0-0.5-0.3-0.8-0.9-0.9l-0.5-0.1   c-0.1,0-0.2-0.1-0.3-0.1S38,23.1,38,23s0-0.2,0.1-0.2c0.1-0.1,0.2-0.1,0.4-0.1c0.1,0,0.2,0,0.3,0s0.2,0,0.3,0.1   c0.1,0,0.2,0.1,0.3,0s0.1-0.1,0.2-0.2c0-0.1,0-0.2,0-0.2c0-0.1-0.1-0.1-0.2-0.2c-0.1-0.1-0.3-0.1-0.4-0.2c-0.2,0-0.3-0.1-0.5-0.1   c-0.3,0-0.5,0-0.7,0.1s-0.4,0.2-0.5,0.4c-0.1,0.2-0.2,0.3-0.2,0.6c0,0.5,0.3,0.8,0.9,0.9l0.5,0.1c0.1,0,0.2,0.1,0.3,0.1   s0.1,0.1,0.1,0.2s0,0.1-0.1,0.2s-0.2,0.1-0.4,0.1c-0.1,0-0.3,0-0.4,0c-0.1,0-0.3-0.1-0.4-0.1c-0.1,0-0.2,0-0.2,0   c-0.1,0-0.1,0.1-0.2,0.1c0,0.1-0.1,0.1-0.1,0.2s0,0.1,0,0.2s0.1,0.1,0.2,0.2c0.1,0.1,0.3,0.1,0.5,0.2c0.2,0,0.4,0.1,0.6,0.1   C38.7,25.3,38.9,25.3,39.1,25.2z M36.4,25.3c0.2,0,0.3-0.1,0.3-0.3s-0.1-0.3-0.3-0.3h-1.2V24h1.1c0.2,0,0.3-0.1,0.3-0.3   s-0.1-0.3-0.3-0.3h-1.1v-0.6h1.2c0.2,0,0.3-0.1,0.3-0.3c0-0.2-0.1-0.3-0.3-0.3h-1.5c-0.3,0-0.4,0.1-0.4,0.4v2.3   c0,0.3,0.1,0.4,0.4,0.4C34.9,25.3,36.4,25.3,36.4,25.3z M31.9,25.2C32,25.1,32,25,32,24.9v-1.1l0,0l1.1,1.2   c0.1,0.1,0.1,0.1,0.2,0.2c0.1,0,0.1,0.1,0.3,0.1c0.1,0,0.2,0,0.3-0.1c0.1,0,0.1-0.1,0.1-0.2s0-0.2-0.1-0.3l-1-1.1l0.9-1   c0.1-0.1,0.1-0.1,0.1-0.2s0-0.2-0.1-0.2c0-0.2-0.1-0.2-0.2-0.2c-0.1,0-0.2,0-0.2,0.1c-0.1,0-0.1,0.1-0.2,0.1l-1.1,1.2l0,0v-1   c0-0.1,0-0.2-0.1-0.3C31.9,22,31.8,22,31.7,22c-0.1,0-0.2,0-0.3,0.1c-0.1,0.1-0.1,0.2-0.1,0.3v2.5c0,0.1,0,0.2,0.1,0.3   c0.1,0.1,0.2,0.1,0.3,0.1C31.8,25.3,31.9,25.3,31.9,25.2z"></path>	</g>	<path class="st1" d="M23.7,38.6c0-1.4,0-2.8,0-4.1c0-0.4,0.1-0.6,0.5-0.8c1-0.5,2-0.7,3.1-0.8c1.7-0.2,3.3,0.1,4.9,0.7  c0.9,0.3,1.8,0.5,2.7,0.5c1,0.1,1.9,0.1,2.9,0.2c0.3,0,0.6,0.2,0.9,0.4c0.1,0.1,0.2,0.1,0.2,0c0.5-0.4,1.1-0.7,1.6-1.1  c0.7-0.5,1.6-0.4,2.2,0.1c0.1,0.1,0.2,0.1,0.3,0c0.3-0.1,0.5-0.3,0.8-0.4c0.7-0.2,1.3-0.1,1.9,0.5c0,0,0.1,0,0.2,0  c0.3-0.1,0.5-0.3,0.7-0.4c1.1-0.3,2,0.1,2.4,1.1s0,2-0.9,2.6c-3,1.7-6,3.4-9.1,5.1c-1.2,0.7-2.3,1.3-3.5,2  c-0.8,0.4-1.6,0.8-2.5,0.7c-0.6-0.1-1.2-0.2-1.8-0.2c-1.4-0.2-2.8-0.4-4.1-0.5c-1-0.1-1.9-0.3-2.9-0.4c-0.4,0-0.6-0.3-0.6-0.6  c0-0.1,0-0.1,0-0.2C23.7,41.3,23.7,40,23.7,38.6z M24.9,38.5c0,0.5,0,0.9,0,1.4c0,0.8,0,1.6,0,2.3c0,0.1,0,0.2,0.1,0.2  c0.6,0.1,1.1,0.1,1.7,0.2c1.4,0.2,2.7,0.4,4.1,0.5c0.8,0.1,1.6,0.2,2.4,0.3c0.7,0.1,1.2-0.2,1.8-0.5c1.1-0.6,2.1-1.2,3.2-1.8  c3.1-1.8,6.3-3.5,9.4-5.3c0.2-0.1,0.3-0.2,0.5-0.4c0.2-0.3,0.1-0.8-0.1-1.1c-0.2-0.2-0.7-0.3-1,0c-0.2,0.2-0.5,0.3-0.7,0.5  c-0.4,0.2-0.8,0.1-1-0.2c-0.2-0.4-0.7-0.5-1.1-0.3c-0.3,0.1-0.5,0.3-0.8,0.4c-0.5,0.3-0.8,0.2-1.1-0.2c-0.3-0.3-0.6-0.4-1-0.2  c-0.5,0.4-1,0.7-1.6,1.1c-0.1,0.1-0.1,0.1-0.1,0.3c0.2,1.2-0.1,2.1-1.2,2.6c-0.4,0.2-0.8,0.3-1.2,0.3c-1.8,0.2-3.7,0.3-5.5,0.5  c-0.3,0-0.6-0.2-0.6-0.5s0.2-0.6,0.5-0.6s0.6-0.1,0.9-0.1c1.3-0.1,2.6-0.2,3.9-0.4c0.4,0,0.9-0.1,1.3-0.2c0.6-0.2,0.8-0.6,0.8-1.2  c0-0.4-0.4-0.8-0.7-0.8c-0.8,0-1.6-0.1-2.5-0.1c-1.2,0-2.3-0.2-3.3-0.5s-2-0.6-3-0.6c-1.3-0.1-2.7,0.1-3.9,0.6  c-0.1,0.1-0.2,0.1-0.2,0.3C24.9,36.1,24.9,37.3,24.9,38.5z"></path>	<path class="st1" d="M35.5,32.3c-4.8,0-8.7-3.9-8.6-8.8c0-4.8,4-8.6,8.7-8.6c4.8,0,8.6,3.9,8.6,8.7C44.1,28.5,40.2,32.3,35.5,32.3z   M35.5,31.2c4.2,0,7.4-3.4,7.5-7.4c0.1-4.2-3.2-7.6-7.3-7.7c-4.1-0.1-7.6,3.2-7.7,7.3C27.9,27.7,31.2,31.1,35.5,31.2z"></path>	<path class="st1" d="M16.7,38.7c0-1.5,0-3,0-4.5c0-0.5,0.3-0.8,0.8-0.8c1.6,0,3.2,0,4.8,0c0.5,0,0.8,0.3,0.8,0.8c0,3,0,6,0,9  c0,0.5-0.3,0.8-0.8,0.8c-1.6,0-3.1,0-4.7,0c-0.4,0-0.8-0.3-0.8-0.8C16.7,41.7,16.7,40.2,16.7,38.7z M17.8,34.5c0,2.8,0,5.5,0,8.3  c0.1,0,0.1,0,0.2,0c1.2,0,2.4,0,3.6,0c0.2,0,0.2-0.1,0.2-0.2c0-2.6,0-5.2,0-7.8c0-0.2-0.1-0.2-0.2-0.2c-1.2,0-2.4,0-3.6,0  C18,34.5,17.9,34.5,17.8,34.5z"></path>	<path class="st1" d="M28.7,23.7c0-3.7,3-6.8,6.7-6.8s6.8,3,6.8,6.8c0,3.7-3,6.8-6.7,6.8S28.7,27.4,28.7,23.7z M41.1,23.7  c0-3.1-2.5-5.7-5.6-5.6c-3.1,0-5.6,2.6-5.6,5.6c0,3.1,2.5,5.6,5.6,5.6C38.6,29.3,41.1,26.8,41.1,23.7z"></path>	<path class="st1" d="M20.8,41.2c0,0.5-0.4,0.9-0.9,0.9S19,41.7,19,41.2s0.4-0.9,0.9-0.9C20.4,40.2,20.8,40.6,20.8,41.2z"></path></g></svg>