<svg xmlns="http://www.w3.org/2000/svg" xmlns:xlink="http://www.w3.org/1999/xlink" id="Layer_1" x="0px" y="0px" viewBox="0 0 64 64" style="enable-background:new 0 0 64 64;" xml:space="preserve"><style type="text/css">	.st0{fill:#FFFFFF;stroke:#FF9201;stroke-width:0.25;stroke-miterlimit:10;}	.st1{fill:#FF9201;}	.st2{fill:#FFFFFF;}</style><circle class="st0" cx="32" cy="32" r="31"></circle><circle class="st1" cx="32" cy="32" r="28.2"></circle><circle class="st2" cx="32" cy="32" r="22"></circle><g>	<path class="st1" d="M41.3,42.9L41,43.1c-2.5,2-5.6,3.2-9,3.2c-7.9,0-14.3-6.4-14.3-14.3c0-3.5,1.2-6.6,3.3-9.1l0.2-0.3l1.4,1.8  l-0.1,0.2c-1.6,2-2.5,4.6-2.5,7.3c0,1.7,0.3,3.2,0.9,4.7c0.6,1.4,1.5,2.7,2.6,3.8c2.2,2.2,5.2,3.5,8.5,3.5c2.8,0,5.4-1,7.5-2.6  l0.2-0.2L41.3,42.9z"></path>	<path class="st1" d="M46.3,32c0,3.4-1.2,6.5-3.2,9L43,41.2l-1.6-1.7l0.1-0.2c1.6-2,2.5-4.6,2.5-7.4c0-3.3-1.3-6.3-3.5-8.5  c-1.1-1.1-2.4-2-3.8-2.6c-1.4-0.6-3-0.9-4.7-0.9c-2.8,0-5.3,0.9-7.4,2.5l-0.2,0.2L23,20.8l0.2-0.2c1.2-0.9,2.6-1.7,4-2.2  c1.5-0.5,3.1-0.8,4.7-0.8C39.9,17.7,46.3,24.1,46.3,32z"></path>	<polygon class="st1" points="38.2,30.8 38.2,33.1 33.1,33.1 33.1,38.4 30.9,38.4 30.9,33.1 25.8,33.1 25.8,30.8 30.9,30.8   30.9,25.5 33.1,25.5 33.1,30.8  "></polygon></g></svg>