<svg xmlns="http://www.w3.org/2000/svg" xmlns:xlink="http://www.w3.org/1999/xlink" id="Layer_1" x="0px" y="0px" viewBox="0 0 64 64" style="enable-background:new 0 0 64 64;" xml:space="preserve"><style type="text/css">	.st0{fill:#FFFFFF;stroke:#FF9201;stroke-width:0.25;stroke-miterlimit:10;}	.st1{fill:#FF9201;}	.st2{fill:#FFFFFF;}</style><circle class="st0" cx="32" cy="32" r="31"></circle><circle class="st1" cx="32" cy="32" r="28.2"></circle><circle class="st2" cx="32" cy="32" r="22"></circle><g>	<path class="st1" d="M18.8,27.2c0-1.8,0-3.5,0-5.3c0-0.8,0.3-1.3,1.1-1.6c3.8-1.4,7.6-2.9,11.4-4.3c0.4-0.2,0.8-0.2,1.3,0  c3.8,1.4,7.6,2.9,11.5,4.3c0.8,0.3,1.1,0.8,1.1,1.6c0,3.2,0,6.3,0,9.5c0,3-0.9,5.7-2.6,8.2c-1.9,2.7-4.4,4.9-7.2,6.7  c-0.8,0.5-1.7,1-2.6,1.5c-0.5,0.3-1.1,0.3-1.6,0c-3.3-1.8-6.3-4-8.7-6.9c-1.6-1.9-2.9-4.1-3.4-6.6c-0.2-0.8-0.2-1.6-0.2-2.4  C18.8,30.4,18.8,28.8,18.8,27.2z M42.2,27.9c0-1.6,0-3.1,0-4.7c0-0.3-0.1-0.4-0.4-0.5c-3.2-1.2-6.4-2.4-9.5-3.6  c-0.2-0.1-0.5-0.1-0.6,0c-3.2,1.2-6.4,2.4-9.6,3.6c-0.2,0.1-0.3,0.2-0.3,0.5c0,2.9,0,5.8,0,8.8c0,0.4,0,0.7,0.1,1.1  c0.2,1.8,1,3.5,2,5c2.1,2.9,4.9,5.1,7.9,6.9c0.1,0.1,0.3,0.1,0.4,0c0.5-0.3,1-0.6,1.5-1c2.4-1.6,4.7-3.5,6.4-5.9  c1.4-1.9,2.2-4.1,2.1-6.5C42.2,30.3,42.2,29.1,42.2,27.9z"></path>	<path class="st1" d="M36.3,26.6c0.9,0.9,1.7,1.8,2.5,2.7c-2.6,2.5-5.2,5-7.9,7.5c-1.5-1.4-3-2.9-4.6-4.3c0.9-0.8,1.8-1.6,2.8-2.4  c0.6,0.6,1.2,1.1,1.8,1.7C32.7,30,34.5,28.3,36.3,26.6z"></path></g></svg>